<?xml version="1.0" encoding="UTF-8"?>
<svg width="24px" height="24px" viewBox="0 0 24 24" version="1.1" xmlns="http://www.w3.org/2000/svg" xmlns:xlink="http://www.w3.org/1999/xlink">
    <!-- Generator: sketchtool 50.2 (55047) - http://www.bohemiancoding.com/sketch -->
    <title>CEB37AED-0462-4227-A626-06980D22FE75</title>
    <desc>Created with sketchtool.</desc>
    <defs></defs>
    <g id="Desktop" stroke="none" stroke-width="1" fill="none" fill-rule="evenodd">
        <g id="Profile" transform="translate(-610.000000, -420.000000)" fill="#858585" fill-rule="nonzero">
            <g id="Pengalaman-Kerja" transform="translate(565.000000, 310.000000)">
                <g id="Group-7" transform="translate(25.000000, 90.000000)">
                    <g id="Group-6">
                        <g id="noun_500974_cc" transform="translate(20.000000, 20.000000)">
                            <path d="M22.0676129,20.9032258 L22.0676129,10.8139355 L12.7772903,6.16877419 L12.7772903,0 L1.1643871,5.80954839 L1.1643871,20.9032258 L0,20.9032258 L0,23.2258065 L23.2258065,23.2258065 L23.2258065,20.9032258 L22.0676129,20.9032258 Z M8.13212903,19.7450323 L5.80954839,19.7450323 L5.80954839,17.4224516 L8.13212903,17.4224516 L8.13212903,19.7450323 Z M8.13212903,15.099871 L5.80954839,15.099871 L5.80954839,12.7772903 L8.13212903,12.7772903 L8.13212903,15.099871 Z M8.13212903,10.4547097 L5.80954839,10.4547097 L5.80954839,8.13212903 L8.13212903,8.13212903 L8.13212903,10.4547097 Z M17.4224516,19.7450323 L15.099871,19.7450323 L15.099871,17.4224516 L17.4224516,17.4224516 L17.4224516,19.7450323 Z M17.4224516,15.099871 L15.099871,15.099871 L15.099871,12.7772903 L17.4224516,12.7772903 L17.4224516,15.099871 Z" id="Shape"></path>
                        </g>
                    </g>
                </g>
            </g>
        </g>
    </g>
</svg>