<?xml version="1.0" encoding="UTF-8"?>
<svg width="32px" height="32px" viewBox="0 0 32 32" version="1.1" xmlns="http://www.w3.org/2000/svg" xmlns:xlink="http://www.w3.org/1999/xlink">
    <!-- Generator: sketchtool 50.2 (55047) - http://www.bohemiancoding.com/sketch -->
    <title>A57412EE-C7A5-4341-A0CE-CC89440C538E</title>
    <desc>Created with sketchtool.</desc>
    <defs></defs>
    <g id="Desktop" stroke="none" stroke-width="1" fill="none" fill-rule="evenodd">
        <g id="Homepage" transform="translate(-1068.000000, -2958.000000)">
            <g id="Sosial-Media" transform="translate(208.000000, 2896.000000)">
                <g id="social-media" transform="translate(860.000000, 62.000000)">
                    <g id="icon/facebook">
                        <circle id="Oval-2" fill="#37548F" cx="16" cy="16" r="16"></circle>
                        <g id="facebook-logo" transform="translate(12.307692, 8.205128)" fill="#FFFFFF" fill-rule="nonzero">
                            <path d="M4.91818741,5.37148457 L4.91818741,3.95898307 C4.91818741,3.74693886 4.92758601,3.58269694 4.94668531,3.46667538 C4.96571748,3.35047961 5.00901818,3.23620012 5.07621818,3.12338396 C5.14331748,3.01063749 5.25197203,2.932802 5.40201399,2.88966846 C5.55225734,2.84646524 5.75191049,2.82493331 6.00117483,2.82493331 L7.36192448,2.82493331 L7.36192448,0 L5.18651748,0 C3.92777622,0 3.02373147,0.309983124 2.47424895,0.929949371 C1.92483357,1.55005498 1.65015944,2.46345473 1.65015944,3.67049703 L1.65015944,5.37144973 L0.0207776224,5.37144973 L0.0207776224,8.19659208 L1.65005874,8.19659208 L1.65005874,16.393219 L4.91815385,16.393219 L4.91815385,8.19662693 L7.09342657,8.19662693 L7.38095664,5.37148457 L4.91818741,5.37148457 Z" id="Shape"></path>
                        </g>
                    </g>
                </g>
            </g>
        </g>
    </g>
</svg>