<?xml version="1.0" encoding="UTF-8"?>
<svg width="24px" height="18px" viewBox="0 0 24 18" version="1.1" xmlns="http://www.w3.org/2000/svg" xmlns:xlink="http://www.w3.org/1999/xlink">
    <!-- Generator: sketchtool 50.2 (55047) - http://www.bohemiancoding.com/sketch -->
    <title>08393DE2-48AC-4744-A27A-EDF9D1FC0B5F</title>
    <desc>Created with sketchtool.</desc>
    <defs></defs>
    <g id="Desktop" stroke="none" stroke-width="1" fill="none" fill-rule="evenodd">
        <g id="Profile" transform="translate(-610.000000, -2220.000000)" fill="#858585" fill-rule="nonzero">
            <g id="Pendidikan" transform="translate(565.000000, 2007.000000)">
                <g id="Group-7" transform="translate(25.000000, 190.000000)">
                    <g id="Group-6">
                        <g id="school" transform="translate(20.000000, 23.000000)">
                            <polygon id="Shape" points="8.41959184 6.05409836 0 6.05409836 0 8.86721311 4.64816327 8.86721311"></polygon>
                            <polygon id="Shape" points="15.5608163 6.05409836 19.3322449 8.86721311 24 8.86721311 24 6.05409836"></polygon>
                            <path d="M6.28408163,8.86721311 L17.7110204,8.86721311 L12.475102,4.98688525 L12.475102,2.96065574 L14.7967347,2.96065574 C15.0612245,2.96065574 15.2914286,2.74918033 15.2914286,2.46393443 L15.2914286,0.506557377 C15.2914286,0.240983607 15.0808163,0.00983606557 14.7967347,0.00983606557 L12,0.00983606557 C11.7355102,0.00983606557 11.5053061,0.221311475 11.5053061,0.506557377 L11.5053061,2.47868852 L11.5053061,4.98196721 L6.28408163,8.86721311 Z" id="Shape"></path>
                            <path d="M6.28408163,17.9901639 L8.16979592,17.9901639 L8.16979592,13.5540984 C8.16979592,12.6934426 8.8555102,12.004918 9.71265306,12.004918 C10.5697959,12.004918 11.2555102,12.6934426 11.2555102,13.5540984 L11.2555102,17.9901639 L12.7591837,17.9901639 L12.7591837,13.5540984 C12.7591837,12.6934426 13.444898,12.004918 14.3020408,12.004918 C15.1591837,12.004918 15.844898,12.6934426 15.844898,13.5540984 L15.844898,17.9901639 L17.7110204,17.9901639 L17.7110204,9.84098361 L6.28408163,9.84098361 L6.28408163,17.9901639 Z" id="Shape"></path>
                            <path d="M0,17.9901639 L5.29469388,17.9901639 L5.29469388,9.84098361 L0,9.84098361 L0,17.9901639 Z M1.88571429,11.9852459 L3.84979592,11.9852459 L3.84979592,14.8918033 L1.88571429,14.8918033 L1.88571429,11.9852459 Z" id="Shape"></path>
                            <path d="M18.7053061,17.9901639 L24,17.9901639 L24,9.84098361 L18.7053061,9.84098361 L18.7053061,17.9901639 Z M20.1502041,11.9852459 L22.1142857,11.9852459 L22.1142857,14.8918033 L20.1502041,14.8918033 L20.1502041,11.9852459 Z" id="Shape"></path>
                        </g>
                    </g>
                </g>
            </g>
        </g>
    </g>
</svg>