<?xml version="1.0" encoding="UTF-8"?>
<svg width="32px" height="32px" viewBox="0 0 32 32" version="1.1" xmlns="http://www.w3.org/2000/svg" xmlns:xlink="http://www.w3.org/1999/xlink">
    <!-- Generator: sketchtool 50.2 (55047) - http://www.bohemiancoding.com/sketch -->
    <title>EB9555F4-F3F5-446F-9271-B02D9271D2D5</title>
    <desc>Created with sketchtool.</desc>
    <defs></defs>
    <g id="Desktop" stroke="none" stroke-width="1" fill="none" fill-rule="evenodd">
        <g id="Homepage" transform="translate(-1112.000000, -2958.000000)">
            <g id="Sosial-Media" transform="translate(208.000000, 2896.000000)">
                <g id="social-media" transform="translate(860.000000, 62.000000)">
                    <g id="icon/twitter" transform="translate(44.000000, 0.000000)">
                        <circle id="Oval-2" fill="#1E9FEF" cx="16" cy="16" r="16"></circle>
                        <g id="twitter-black-shape" transform="translate(8.205128, 9.846154)" fill="#FFFFFF" fill-rule="nonzero">
                            <path d="M16.4086554,1.56595096 C15.7645437,1.83906067 15.1202865,2.00961973 14.476466,2.07813031 C15.2036477,1.64802018 15.6955188,1.04039232 15.951788,0.255282612 C15.2866087,0.644358134 14.576856,0.910545047 13.8220206,1.05398683 C13.1570959,0.357618047 12.3400034,0.00929017795 11.3701973,0.00929017795 C10.4422719,0.00929017795 9.65108647,0.331827939 8.99634999,0.977046938 C8.34197737,1.62223007 8.01475468,2.40217458 8.01475468,3.31698809 C8.01475468,3.56272944 8.04240832,3.81542945 8.09786116,4.07483705 C6.72653135,4.00657755 5.44012735,3.66693008 4.23843084,3.05589463 C3.0368071,2.44478745 2.01700608,1.63062351 1.1790278,0.61340283 C0.874291887,1.12533109 0.72186935,1.68184503 0.72186935,2.28262183 C0.72186935,2.84928682 0.856899198,3.37506067 1.12714083,3.85979992 C1.39720052,4.34446742 1.76088237,4.73698641 2.21800443,5.03742861 C1.67770311,5.01691131 1.17215078,4.87691299 0.70127466,4.61746953 L0.70127466,4.65843239 C0.70127466,5.45728009 0.955797373,6.15863472 1.46477003,6.76303433 C1.97381545,7.3673622 2.61621695,7.74775732 3.39182898,7.90486535 C3.10091989,7.97986829 2.80651771,8.01742357 2.50876798,8.01742357 C2.31482859,8.01742357 2.10356928,8.0003856 1.87506282,7.966489 C2.08974245,8.62860249 2.48453465,9.17288497 3.05929388,9.59980272 C3.63416226,10.0265053 4.28518733,10.2464565 5.01240548,10.2604456 C3.7935346,11.2024481 2.40495764,11.6734493 0.846674626,11.6734493 C0.548815737,11.6734493 0.278792427,11.6600701 0.0363499915,11.6325941 C1.5946694,12.6224464 3.31221559,13.1173726 5.18909773,13.1173726 C6.38031497,13.1173726 7.49883222,12.9315331 8.54428563,12.5593521 C9.59024845,12.1874222 10.4835704,11.6889091 11.2246882,11.0640998 C11.9655876,10.4394339 12.6046415,9.72086199 13.1413042,8.90845565 C13.6780033,8.09597758 14.0778168,7.24777357 14.3412178,6.36366428 C14.6042913,5.47937565 14.7359372,4.59372397 14.7359372,3.70602774 C14.7359372,3.51484377 14.7324441,3.37154547 14.7254943,3.27591761 C15.3836148,2.80505983 15.9445835,2.23487964 16.4086554,1.56595096 Z" id="Shape"></path>
                        </g>
                    </g>
                </g>
            </g>
        </g>
    </g>
</svg>