<?xml version="1.0" encoding="UTF-8"?>
<svg width="32px" height="32px" viewBox="0 0 32 32" version="1.1" xmlns="http://www.w3.org/2000/svg" xmlns:xlink="http://www.w3.org/1999/xlink">
    <!-- Generator: sketchtool 50.2 (55047) - http://www.bohemiancoding.com/sketch -->
    <title>139E322C-DE0D-43C6-BB90-A7AC89D2AE90</title>
    <desc>Created with sketchtool.</desc>
    <defs></defs>
    <g id="Desktop" stroke="none" stroke-width="1" fill="none" fill-rule="evenodd">
        <g id="Homepage" transform="translate(-1200.000000, -2958.000000)">
            <g id="Sosial-Media" transform="translate(208.000000, 2896.000000)">
                <g id="social-media" transform="translate(860.000000, 62.000000)">
                    <g id="icon/youtube" transform="translate(132.000000, 0.000000)">
                        <circle id="Oval-2" fill="#FF0000" cx="16" cy="16" r="16"></circle>
                        <g id="youtube-logo" transform="translate(8.205128, 10.666667)" fill="#FFFFFF" fill-rule="nonzero">
                            <path d="M16.3890705,4.39359507 C16.383109,4.07104386 16.3570192,3.6632176 16.3114103,3.17049292 C16.2655449,2.67748578 16.1999359,2.23689281 16.1146154,1.84868264 C16.0169872,1.41264061 15.8049679,1.04520779 15.4786538,0.746509738 C15.1523397,0.447748914 14.7725321,0.274562421 14.3392628,0.226699173 C12.9848397,0.0774599972 10.938141,0.00276194479 8.19910256,0.00276194479 C5.46003205,0.00276194479 3.41330128,0.0774599972 2.05897436,0.226699173 C1.62576923,0.274531035 1.24746795,0.447748914 0.924230769,0.746509738 C0.600865385,1.04511363 0.390384615,1.41254645 0.29275641,1.84868264 C0.201346154,2.23701836 0.132628205,2.67757994 0.0868910256,3.17049292 C0.0412179487,3.6632176 0.0152564103,4.07088693 0.00919871795,4.39359507 C0.00301282051,4.71617767 0,5.16417767 0,5.73772061 C0,6.31120078 0.00301282051,6.75932633 0.00923076923,7.08184615 C0.0152884615,7.40461707 0.04125,7.81222362 0.0869230769,8.30491691 C0.132660256,8.79789267 0.198269231,9.23848564 0.283685897,9.62675858 C0.381314103,10.0629262 0.593269231,10.4302962 0.919647436,10.7288687 C1.24608974,11.0275668 1.62592949,11.2007846 2.05900641,11.2486165 C3.41333333,11.3980126 5.4599359,11.4726793 8.19913462,11.4726793 C10.9384295,11.4726793 12.9848718,11.3980126 14.3392949,11.2486165 C14.7725641,11.200816 15.1507051,11.0275668 15.4740705,10.7288687 C15.7974359,10.4302648 16.0077885,10.0627065 16.1054167,9.62675858 C16.196891,9.23848564 16.2655449,8.79789267 16.3114103,8.30491691 C16.3570192,7.81225501 16.3829167,7.40442875 16.3890705,7.08184615 C16.3951923,6.75932633 16.3982692,6.31120078 16.3982692,5.73772061 C16.3982692,5.16417767 16.3952244,4.71617767 16.3890705,4.39359507 Z M11.4385577,6.22162589 L6.75339744,9.08899538 C6.66794872,9.14872243 6.56413462,9.17857027 6.44217949,9.17857027 C6.35073718,9.17857027 6.2561859,9.15459157 6.15858974,9.10682247 C5.95730769,8.99942048 5.85669872,8.83207174 5.85669872,8.60512148 L5.85669872,2.87035113 C5.85669872,2.64346364 5.95733974,2.47611489 6.15858974,2.36861875 C6.36605769,2.26093429 6.56426282,2.26696035 6.75339744,2.38654 L11.4385897,5.25394087 C11.6215385,5.3553168 11.7130128,5.51670226 11.7130128,5.737752 C11.7130128,5.95870758 11.6215064,6.12015581 11.4385577,6.22162589 Z" id="Shape"></path>
                        </g>
                    </g>
                </g>
            </g>
        </g>
    </g>
</svg>